<svg width="7" height="10" viewBox="0 0 7 10" fill="none" xmlns="http://www.w3.org/2000/svg">
<path d="M4.92 4.608C5.424 4.744 5.808 4.992 6.072 5.352C6.344 5.712 6.48 6.156 6.48 6.684C6.48 7.428 6.204 8.016 5.652 8.448C5.108 8.88 4.372 9.096 3.444 9.096C2.868 9.096 2.312 9.008 1.776 8.832C1.248 8.656 0.812 8.412 0.468 8.1L0.996 6.972C1.756 7.564 2.552 7.86 3.384 7.86C3.928 7.86 4.332 7.752 4.596 7.536C4.868 7.32 5.004 6.992 5.004 6.552C5.004 6.12 4.868 5.804 4.596 5.604C4.324 5.396 3.904 5.292 3.336 5.292H2.208V4.056H3.132C4.236 4.056 4.788 3.636 4.788 2.796C4.788 2.404 4.668 2.104 4.428 1.896C4.188 1.688 3.852 1.584 3.42 1.584C2.652 1.584 1.884 1.88 1.116 2.472L0.6 1.344C0.944 1.04 1.376 0.799999 1.896 0.624C2.424 0.44 2.964 0.348 3.516 0.348C4.356 0.348 5.024 0.556 5.52 0.972C6.024 1.38 6.276 1.928 6.276 2.616C6.268 3.088 6.144 3.5 5.904 3.852C5.672 4.196 5.344 4.448 4.92 4.608Z" fill="white"/>
</svg>
